<svg width="156" height="52" viewBox="0 0 156 52" fill="none" xmlns="http://www.w3.org/2000/svg">
<path d="M140.746 0H5.17536C2.31709 0 0 2.31709 0 5.17536V46.5782C0 49.4365 2.31709 51.7536 5.17536 51.7536H127.303C129.546 51.7536 131.533 50.3093 132.226 48.1764L145.668 6.77354C146.754 3.42987 144.261 0 140.746 0Z" fill="#161616"/>
<circle cx="140.474" cy="27.3554" r="15.5261" fill="#FF6155"/>
<path d="M132.91 26.8007C132.604 26.8007 132.355 27.049 132.355 27.3552C132.355 27.6615 132.604 27.9097 132.91 27.9097L132.91 26.8007ZM148.43 27.7473C148.647 27.5308 148.647 27.1797 148.43 26.9631L144.901 23.4343C144.685 23.2178 144.334 23.2178 144.117 23.4343C143.9 23.6508 143.9 24.0019 144.117 24.2185L147.254 27.3552L144.117 30.492C143.9 30.7085 143.9 31.0596 144.117 31.2761C144.334 31.4927 144.685 31.4927 144.901 31.2761L148.43 27.7473ZM132.91 27.9097L148.038 27.9097L148.038 26.8007L132.91 26.8007L132.91 27.9097Z" fill="white"/>
</svg>
