<svg width="211" height="70" viewBox="0 0 211 70" fill="none" xmlns="http://www.w3.org/2000/svg">
<path d="M190.368 0H7C3.13401 0 0 3.13401 0 7V63C0 66.866 3.134 70 6.99999 70H172.186C175.219 70 177.907 68.0466 178.844 65.1617L197.025 9.16165C198.494 4.63912 195.122 0 190.368 0Z" fill="#161616"/>
<circle cx="190" cy="37" r="21" fill="#FF6155"/>
<path d="M179.769 36.25C179.355 36.25 179.019 36.5858 179.019 37C179.019 37.4142 179.355 37.75 179.769 37.75L179.769 36.25ZM200.761 37.5303C201.054 37.2374 201.054 36.7626 200.761 36.4697L195.988 31.6967C195.695 31.4038 195.22 31.4038 194.928 31.6967C194.635 31.9896 194.635 32.4645 194.928 32.7574L199.17 37L194.928 41.2426C194.635 41.5355 194.635 42.0104 194.928 42.3033C195.22 42.5962 195.695 42.5962 195.988 42.3033L200.761 37.5303ZM179.769 37.75L200.231 37.75L200.231 36.25L179.769 36.25L179.769 37.75Z" fill="white"/>
</svg>
