<svg width="196" height="78" viewBox="0 0 196 78" fill="none" xmlns="http://www.w3.org/2000/svg">
<circle cx="39" cy="39" r="38.5" stroke="black"/>
<circle cx="157" cy="39" r="39" fill="#161616"/>
<path d="M138 38C137.448 38 137 38.4477 137 39C137 39.5523 137.448 40 138 40L138 38ZM176.707 39.7071C177.098 39.3166 177.098 38.6834 176.707 38.2929L170.343 31.9289C169.953 31.5384 169.319 31.5384 168.929 31.9289C168.538 32.3195 168.538 32.9526 168.929 33.3431L174.586 39L168.929 44.6569C168.538 45.0474 168.538 45.6805 168.929 46.0711C169.319 46.4616 169.953 46.4616 170.343 46.0711L176.707 39.7071ZM138 40L176 40L176 38L138 38L138 40Z" fill="white"/>
<path d="M58 38C58.5523 38 59 38.4477 59 39C59 39.5523 58.5523 40 58 40L58 38ZM19.2929 39.7071C18.9024 39.3166 18.9024 38.6834 19.2929 38.2929L25.6569 31.9289C26.0474 31.5384 26.6805 31.5384 27.0711 31.9289C27.4616 32.3195 27.4616 32.9526 27.0711 33.3431L21.4142 39L27.0711 44.6569C27.4616 45.0474 27.4616 45.6805 27.0711 46.0711C26.6805 46.4616 26.0474 46.4616 25.6569 46.0711L19.2929 39.7071ZM58 40L20 40L20 38L58 38L58 40Z" fill="#161616"/>
</svg>
