<svg width="42" height="42" viewBox="0 0 42 42" fill="none" xmlns="http://www.w3.org/2000/svg">
<circle cx="21" cy="21" r="21" fill="#FF6155"/>
<path d="M10.7693 20.25C10.3551 20.25 10.0193 20.5858 10.0193 21C10.0193 21.4142 10.3551 21.75 10.7693 21.75L10.7693 20.25ZM31.7612 21.5303C32.054 21.2374 32.054 20.7626 31.7612 20.4697L26.9882 15.6967C26.6953 15.4038 26.2204 15.4038 25.9275 15.6967C25.6346 15.9896 25.6346 16.4645 25.9275 16.7574L30.1702 21L25.9275 25.2426C25.6346 25.5355 25.6346 26.0104 25.9275 26.3033C26.2204 26.5962 26.6953 26.5962 26.9882 26.3033L31.7612 21.5303ZM10.7693 21.75L31.2308 21.75L31.2308 20.25L10.7693 20.25L10.7693 21.75Z" fill="white"/>
</svg>
