<svg width="19" height="28" viewBox="0 0 19 28" fill="none" xmlns="http://www.w3.org/2000/svg">
<path d="M3.20725 0.614341L4.66757 0.132735C6.03695 -0.31807 7.49998 0.411339 8.08627 1.83656L9.25344 4.67579C9.76102 5.912 9.47873 7.36662 8.55585 8.27103L5.98402 10.7883C6.14281 12.2947 6.6341 13.7773 7.45655 15.2361C8.23756 16.6475 9.28516 17.8829 10.5373 18.8692L13.6262 17.8051C14.7961 17.4033 16.0719 17.8667 16.7884 18.9546L18.4618 21.4886C19.2965 22.7542 19.1458 24.4986 18.1103 25.571L17.0015 26.7204C15.8968 27.8643 14.3184 28.2801 12.8594 27.8097C9.41223 26.7008 6.24595 23.4094 3.35519 17.9353C0.460346 12.4529 -0.561602 7.79922 0.2907 3.97998C0.648992 2.37276 1.7578 1.09175 3.20725 0.614341Z" fill="#2B2B2B"/>
</svg>
