<svg width="25" height="19" viewBox="0 0 25 19" fill="none" xmlns="http://www.w3.org/2000/svg">
<path d="M8.45 18.42C6.91 18.42 5.55667 18.175 4.39 17.685C3.22333 17.1717 2.29 16.4717 1.59 15.585C0.89 14.6983 0.47 13.6717 0.33 12.505H4.845C4.985 13.1817 5.35833 13.765 5.965 14.255C6.595 14.7217 7.4 14.955 8.38 14.955C9.36 14.955 10.0717 14.7567 10.515 14.36C10.9817 13.9633 11.215 13.5083 11.215 12.995C11.215 12.2483 10.8883 11.7467 10.235 11.49C9.58167 11.21 8.67167 10.9417 7.505 10.685C6.75833 10.5217 6 10.3233 5.23 10.09C4.46 9.85667 3.74833 9.565 3.095 9.215C2.465 8.84167 1.95167 8.375 1.555 7.815C1.15833 7.23167 0.96 6.52 0.96 5.68C0.96 4.14 1.56667 2.845 2.78 1.795C4.01667 0.744999 5.74333 0.219999 7.96 0.219999C10.0133 0.219999 11.6467 0.698333 12.86 1.655C14.0967 2.61167 14.8317 3.93 15.065 5.61H10.83C10.5733 4.32667 9.605 3.685 7.925 3.685C7.085 3.685 6.43167 3.84833 5.965 4.175C5.52167 4.50167 5.3 4.91 5.3 5.4C5.3 5.91333 5.63833 6.32167 6.315 6.625C6.99167 6.92833 7.89 7.20833 9.01 7.465C10.2233 7.745 11.3317 8.06 12.335 8.41C13.3617 8.73667 14.1783 9.23833 14.785 9.915C15.3917 10.5683 15.695 11.5133 15.695 12.75C15.7183 13.8233 15.4383 14.7917 14.855 15.655C14.2717 16.5183 13.4317 17.195 12.335 17.685C11.2383 18.175 9.94333 18.42 8.45 18.42ZM21.5887 18.245C20.772 18.245 20.0953 17.9883 19.5587 17.475C19.0453 16.9617 18.7887 16.3433 18.7887 15.62C18.7887 14.8733 19.0453 14.2433 19.5587 13.73C20.0953 13.2167 20.772 12.96 21.5887 12.96C22.4053 12.96 23.0703 13.2167 23.5837 13.73C24.1203 14.2433 24.3887 14.8733 24.3887 15.62C24.3887 16.3433 24.1203 16.9617 23.5837 17.475C23.0703 17.9883 22.4053 18.245 21.5887 18.245Z" fill="black"/>
</svg>
